<svg xmlns="http://www.w3.org/2000/svg" width="55.602" height="70.202" viewBox="0 0 55.602 70.202">
  <g id="graduated" transform="translate(-53.287 0.102)">
    <path id="Path_6736" data-name="Path 6736" d="M101.3,45.732l-4.108-1.206-8.938-5.838V37.35a11.9,11.9,0,0,0,4.7-8.356A2.731,2.731,0,0,0,95.236,26.3V22.624c0-.014,0-.028,0-.042v-4.66a2.022,2.022,0,0,0,.845-1.65V12.008l6.168-1.051a2.187,2.187,0,0,0,.3-4.24L81.749.1a2.176,2.176,0,0,0-1.326,0L59.628,6.717a2.194,2.194,0,0,0-.681,3.817v5.576H58.9a2.126,2.126,0,0,0-2.124,2.124V21L55.4,29.049a2.283,2.283,0,0,0,2.25,2.665h4.641a2.283,2.283,0,0,0,2.25-2.666L63.172,21V18.235a2.126,2.126,0,0,0-2.124-2.124H61V11.14l5.1.868v4.264a2.023,2.023,0,0,0,.841,1.647l0,4.706V26.3a2.731,2.731,0,0,0,2.292,2.692,11.9,11.9,0,0,0,4.691,8.352v1.344l-8.936,5.837-4.1,1.2a10.427,10.427,0,0,0-7.494,10.01V58.8a1.025,1.025,0,0,0,2.051,0V55.743A8.427,8.427,0,0,1,61.459,47.7l3.825-1.123,15.281,9.08a1.037,1.037,0,0,0,1.048,0l15.281-9.08,3.824,1.123a8.427,8.427,0,0,1,6.021,8.042v9.9a2.306,2.306,0,0,1-2.3,2.3h-4.52v-4.42a1.025,1.025,0,0,0-2.051,0v4.42H64.307v-4.42a1.025,1.025,0,1,0-2.051,0v4.42H57.742a2.306,2.306,0,0,1-2.3-2.3V63.592a1.025,1.025,0,0,0-2.051,0v2.054A4.359,4.359,0,0,0,57.741,70h46.693a4.359,4.359,0,0,0,4.354-4.354v-9.9a10.427,10.427,0,0,0-7.494-10.01Zm-39-16.068H57.652a.231.231,0,0,1-.228-.27l1.24-7.278h2.618l1.24,7.278a.231.231,0,0,1-.228.271ZM61.121,18.235v1.829h-2.3V18.235a.073.073,0,0,1,.073-.073h2.152A.073.073,0,0,1,61.121,18.235Zm16.3,32.784.408.627L67.36,45.426l6.645-4.34A21.539,21.539,0,0,0,77.421,51.019Zm-.007-4.426a26.367,26.367,0,0,0,7.349,0A19.585,19.585,0,0,1,83.036,49.9L81.088,52.9,79.14,49.9a19.584,19.584,0,0,1-1.726-3.308Zm7.342,4.426a21.537,21.537,0,0,0,3.416-9.933l6.645,4.34-10.468,6.22Zm6-32.716h2.43V21.6H91.977a1.225,1.225,0,0,1-1.224-1.224V18.3ZM60.25,8.672l20.8-6.614a.135.135,0,0,1,.082,0l20.795,6.614a.114.114,0,0,1,.094.139c-.008.107-.068.117-.113.125l-6.875,1.171-2.581-.319a1.025,1.025,0,0,0-.252,2.035l1.833.227v4.2H68.147v-4.2l10.61-1.313a18.994,18.994,0,0,1,4.657,0l4.016.5A1.025,1.025,0,1,0,87.682,9.2l-4.016-.5a21.035,21.035,0,0,0-5.16,0L67.145,10.107,60.268,8.935c-.045-.008-.105-.018-.113-.125a.115.115,0,0,1,.095-.139ZM68.99,21.6V18.3h2.434v2.071A1.226,1.226,0,0,1,70.2,21.6H68.99Zm2.257,6.869a1.589,1.589,0,0,0-1.58-1.489.677.677,0,0,1-.677-.676V23.649H70.2a3.279,3.279,0,0,0,3.275-3.275V18.3H88.7v2.071a3.279,3.279,0,0,0,3.275,3.275h1.208V26.3a.677.677,0,0,1-.677.676,1.589,1.589,0,0,0-1.58,1.489,9.861,9.861,0,0,1-19.682,0Zm9.841,11.284a11.835,11.835,0,0,0,5.11-1.158v.65a19.542,19.542,0,0,1-.692,5.15,24.212,24.212,0,0,1-8.837,0,19.54,19.54,0,0,1-.692-5.15c0-.022,0-.043,0-.064,0,0,0-.008,0-.013v-.575A11.837,11.837,0,0,0,81.088,39.751Z" transform="translate(0 0)" fill="#212121" stroke="#212121" stroke-width="0.2"/>
  </g>
</svg>
