<svg xmlns="http://www.w3.org/2000/svg" width="55.307" height="70.095" viewBox="0 0 55.307 70.095">
  <g id="Alumni-directory" transform="translate(-769.918 -673.942)">
    <g id="phonebook" transform="translate(715.912 673.942)">
      <g id="Group_7271" data-name="Group 7271" transform="translate(54.006 29.143)">
        <g id="Group_7270" data-name="Group 7270">
          <path id="Path_6756" data-name="Path 6756" d="M55.375,212.872a1.371,1.371,0,1,0,1.369,1.372v-.006A1.367,1.367,0,0,0,55.375,212.872Z" transform="translate(-54.006 -212.872)" fill="#212121"/>
        </g>
      </g>
      <g id="Group_7273" data-name="Group 7273" transform="translate(54.006)">
        <g id="Group_7272" data-name="Group 7272">
          <path id="Path_6757" data-name="Path 6757" d="M102.468,0H60.851a6.853,6.853,0,0,0-6.845,6.845v18.23a1.369,1.369,0,0,0,2.738,0V6.845a4.112,4.112,0,0,1,4.107-4.107h41.617a4.112,4.112,0,0,1,4.107,4.107V52.3a4.112,4.112,0,0,1-4.107,4.107H60.851a6.809,6.809,0,0,0-4.107,1.373V35.829a1.369,1.369,0,1,0-2.738,0V63.25a6.853,6.853,0,0,0,6.845,6.845h41.617a6.853,6.853,0,0,0,6.845-6.845V6.845A6.853,6.853,0,0,0,102.468,0Zm4.107,63.25a4.112,4.112,0,0,1-4.107,4.107H60.851a4.107,4.107,0,0,1,0-8.214h41.617a6.81,6.81,0,0,0,4.107-1.372,4.111,4.111,0,0,1-4.107,4.087H67.742a1.369,1.369,0,0,0,0,2.738h34.726a6.809,6.809,0,0,0,4.107-1.373Z" transform="translate(-54.006 0)" fill="#212121"/>
        </g>
      </g>
      <g id="Group_7275" data-name="Group 7275" transform="translate(61.769 61.895)">
        <g id="Group_7274" data-name="Group 7274">
          <path id="Path_6758" data-name="Path 6758" d="M113.049,452.509a1.368,1.368,0,1,0,.4.968A1.379,1.379,0,0,0,113.049,452.509Z" transform="translate(-110.712 -452.108)" fill="#212121"/>
        </g>
      </g>
    </g>
    <g id="graduated" transform="translate(731.101 686.78)">
      <path id="Path_6736" data-name="Path 6736" d="M75.739,21.331l-1.916-.563-4.169-2.723v-.624a5.551,5.551,0,0,0,2.192-3.9,1.274,1.274,0,0,0,1.064-1.257V8.358a.943.943,0,0,0,.394-.77V5.6l2.877-.49a1.02,1.02,0,0,0,.14-1.978L66.619.045a1.015,1.015,0,0,0-.619,0L56.3,3.131a1.023,1.023,0,0,0-.318,1.781v2.6h-.022a.992.992,0,0,0-.991.991v1.29l-.642,3.755a1.065,1.065,0,0,0,1.05,1.243h2.165a1.065,1.065,0,0,0,1.05-1.244l-.639-3.754V8.5a.992.992,0,0,0-.991-.991H56.94V5.195l2.379.4V7.589a.944.944,0,0,0,.392.768v3.909a1.274,1.274,0,0,0,1.069,1.256,5.551,5.551,0,0,0,2.188,3.9v.627L58.8,20.768l-1.913.56A4.864,4.864,0,0,0,53.392,26v1.43a.478.478,0,0,0,.957,0V26a3.931,3.931,0,0,1,2.805-3.752l1.784-.524,7.128,4.236a.484.484,0,0,0,.489,0l7.128-4.236,1.784.524A3.931,3.931,0,0,1,78.276,26v4.618A1.076,1.076,0,0,1,77.2,31.691H75.095V29.629a.478.478,0,0,0-.957,0v2.062H58.483V29.629a.478.478,0,0,0-.957,0v2.062H55.421a1.076,1.076,0,0,1-1.073-1.073v-.956a.478.478,0,0,0-.957,0v.958a2.033,2.033,0,0,0,2.029,2.031H77.2a2.033,2.033,0,0,0,2.031-2.031V26a4.864,4.864,0,0,0-3.5-4.669Zm-18.192-7.5H55.379a.108.108,0,0,1-.106-.126l.578-3.395h1.221l.578,3.395a.108.108,0,0,1-.106.126ZM57,8.5v.853H55.924V8.5a.034.034,0,0,1,.034-.034h1A.034.034,0,0,1,57,8.5ZM64.6,23.8l.19.292-4.883-2.9,3.1-2.024A10.047,10.047,0,0,0,64.6,23.8Zm0-2.065a12.3,12.3,0,0,0,3.428,0,9.135,9.135,0,0,1-.806,1.543l-.909,1.4-.909-1.4a9.135,9.135,0,0,1-.805-1.543ZM68.022,23.8a10.046,10.046,0,0,0,1.593-4.633l3.1,2.024-4.883,2.9Zm2.8-15.261h1.134v1.538H71.39a.571.571,0,0,1-.571-.571V8.535ZM56.591,4.043l9.7-3.085a.063.063,0,0,1,.038,0l9.7,3.085a.053.053,0,0,1,.044.065c0,.05-.032.055-.053.058l-3.207.546-1.2-.149a.478.478,0,1,0-.118.949l.855.106V7.578H60.274V5.619l4.949-.612a8.86,8.86,0,0,1,2.172,0l1.873.233a.479.479,0,0,0,.118-.95l-1.873-.233a9.812,9.812,0,0,0-2.407,0l-5.3.656L56.6,4.166c-.021,0-.049-.008-.053-.058a.054.054,0,0,1,.044-.065Zm4.077,6.03V8.535H61.8V9.5a.572.572,0,0,1-.571.573Zm1.053,3.2a.741.741,0,0,0-.737-.695.316.316,0,0,1-.316-.315V11.03h.564A1.53,1.53,0,0,0,62.76,9.5V8.535h7.1V9.5a1.53,1.53,0,0,0,1.528,1.528h.563v1.238a.316.316,0,0,1-.316.315.741.741,0,0,0-.737.695,4.6,4.6,0,0,1-9.181,0Zm4.591,5.264A5.521,5.521,0,0,0,68.694,18v.3a9.112,9.112,0,0,1-.322,2.4,11.294,11.294,0,0,1-4.123,0,9.115,9.115,0,0,1-.323-2.4V18a5.522,5.522,0,0,0,2.384.54Z" transform="translate(0 0)" fill="#212121" stroke="#212121" stroke-width="0.2"/>
    </g>
  </g>
</svg>
