<svg id="portraits" enable-background="new 0 0 300 300" height="512" viewBox="0 0 300 300" width="512" xmlns="http://www.w3.org/2000/svg"><g><path d="m75.621 70.241c2.211 0 4-1.791 4-4v-12c0-2.209-1.789-4-4-4s-4 1.791-4 4v12c0 2.209 1.789 4 4 4z"/><path d="m75.621 78.241c-2.211 0-4 1.791-4 4v12c0 2.209 1.789 4 4 4s4-1.791 4-4v-12c0-2.209-1.789-4-4-4z"/><path d="m55.621 78.241h12c2.211 0 4-1.791 4-4s-1.789-4-4-4h-12c-2.211 0-4 1.791-4 4s1.789 4 4 4z"/><path d="m83.621 78.241h12c2.211 0 4-1.791 4-4s-1.789-4-4-4h-12c-2.211 0-4 1.791-4 4s1.789 4 4 4z"/><path d="m249.621 182.241c-7.719 0-14 6.281-14 14s6.281 14 14 14 14-6.281 14-14-6.281-14-14-14zm0 20c-3.309 0-6-2.691-6-6s2.691-6 6-6 6 2.691 6 6-2.691 6-6 6z"/><circle cx="191.621" cy="210.241" r="4"/><circle cx="119.621" cy="94.241" r="4"/><path d="m271.621 26.241h-120c-2.211 0-4 1.791-4 4v72.42l-1.762-5.217c-.707-2.096-2.973-3.215-5.07-2.51l-113.691 38.395c-2.09.707-3.215 2.977-2.508 5.068l37.113 109.898v.004c.001.002.002.003.003.005l7.677 22.733c.34 1.006 1.062 1.834 2.016 2.305.555.277 1.164.416 1.773.416.43 0 .863-.07 1.281-.211l113.691-38.395c2.09-.707 3.215-2.977 2.508-5.068l-18.857-55.844h99.826c2.211 0 4-1.791 4-4v-140c0-2.208-1.789-3.999-4-3.999zm-4 8v108h-16v-3.305c0-7.448-4.977-13.892-12-15.956v-50.29c0-.775-.219-1.5-.602-2.113-1.727-6.732-7.125-11.775-13.773-13.066-1.5-4.232-5.523-7.27-10.238-7.27h-13.645c-9.781 0-17.742 8.027-17.742 17.896v54.795c-7 2.043-12 8.477-12 16.004v3.305h-16v-108zm-60 108v-4.737c1.257.448 2.591.737 4 .737s2.743-.289 4-.737v4.737zm-16 0v-28.442c2.295 2.347 5.005 4.273 8 5.702v22.74zm24-16c0 2.205-1.793 4-4 4s-4-1.795-4-4v-4.32c1.31.189 2.638.32 4 .32s2.69-.131 4-.32zm-4-12c-11.027 0-20-8.973-20-20v-6.496l5.5-5.744c5.008 2.348 15.699 5.654 28.887-.117l5.613 5.861v6.496c0 11.028-8.972 20-20 20zm20-38.065-1.836-1.917c-1.234-1.289-3.164-1.6-4.742-.781-14.961 7.814-25.965.564-26.41.264-1.605-1.121-3.805-.91-5.176.518l-1.836 1.917v-8.038c0-5.457 4.371-9.896 9.742-9.896h13.645c1.582 0 2.871 1.322 2.871 2.947 0 2.209 1.789 4 4 4 4.723 0 8.746 3.441 9.562 8.182.039.227.098.445.18.656zm-48 66.065h-4v-3.305c0-3.048 1.59-5.73 4-7.285zm40-22.74c2.995-1.429 5.705-3.355 8-5.702v28.442h-8zm16 12.134c2.422 1.564 4 4.276 4 7.301v3.305h-4zm-163.937 133.053-5.119-15.159 106.11-35.834 5.118 15.159zm14-33.546c-1.531-4.543.914-9.486 5.457-11.021l10.709-3.616 3.842 11.368-18.949 6.399zm-11.285-70.918c-1.742-5.17.977-10.773 6.066-12.494l12.922-4.363c.297-.102.598-.148.898-.148 1.211 0 2.352.785 2.77 2.021.34 1.006 1.062 1.834 2.016 2.305.945.473 2.039.545 3.055.205 4.457-1.504 9.387.463 11.672 4.691.113.203.238.391.383.566l.688 2.035-2.352-1.229c-1.574-.824-3.504-.512-4.738.777-11.676 12.188-24.422 8.842-24.941 8.699-1.875-.555-3.902.359-4.734 2.145l-1.129 2.41zm9.648 11.377c5.492.611 16.688.326 27.332-9.355l7.193 3.756 2.081 6.156c3.523 10.449-2.105 21.82-12.555 25.35-5.055 1.709-10.48 1.346-15.27-1.025s-8.367-6.465-10.074-11.525l-2.08-6.156zm35.29 46.674 1.511 4.478-7.578 2.559-1.503-4.45c.062.001.121.014.183.014 1.27 0 2.562-.203 3.832-.633 1.315-.444 2.494-1.135 3.555-1.968zm9.091 1.919-3.838-11.37 10.707-3.618c4.555-1.525 9.492.914 11.023 5.457l1.058 3.131zm-12.697-12.597c.34 1.012.27 2.096-.203 3.053-.477.957-1.293 1.674-2.309 2.016-2.07.701-4.363-.42-5.07-2.51l-1.384-4.097c1.308-.243 2.612-.54 3.895-.974 1.29-.436 2.508-.985 3.689-1.583zm54.385-1.481-15.16 5.12-1.057-3.131c-2.941-8.719-12.426-13.418-21.16-10.477l-10.709 3.618-.877-2.597c7.504-7.29 10.641-18.495 7.078-29.05 0 0 0 0 0-.002l-6.898-20.416c-.227-.668-.633-1.23-1.152-1.662-3.766-5.926-10.551-9.045-17.32-8.121-2.781-3.529-7.555-5.119-12.031-3.611l-12.926 4.365c-9.266 3.131-14.238 13.283-11.082 22.631l8.355 24.732c2.391 7.086 7.398 12.816 14.102 16.135 2.92 1.446 6.01 2.355 9.153 2.727l.861 2.549-10.712 3.617c-8.719 2.945-13.418 12.438-10.473 21.16l1.058 3.129-15.159 5.119-34.558-102.323 106.109-35.834 8.016 23.727c.01.031.036.051.047.082v42.639c0 2.209 1.789 4 4 4h11.732zm-18.495-39.875v-16h112v16z"/></g></svg>